<mxfile host="Electron" modified="2024-02-27T02:36:01.397Z" agent="Mozilla/5.0 (Windows NT 10.0; Win64; x64) AppleWebKit/537.36 (KHTML, like Gecko) draw.io/21.6.5 Chrome/114.0.5735.243 Electron/25.3.1 Safari/537.36" etag="aCDnyjqsbwfjyB-vj3TU" version="21.6.5" type="device">
  <diagram name="PÃ¡gina-1" id="mT6D5iP0YSBFZBJlNXru">
    <mxGraphModel dx="2103" dy="606" grid="1" gridSize="10" guides="1" tooltips="1" connect="1" arrows="1" fold="1" page="1" pageScale="1" pageWidth="827" pageHeight="1169" math="0" shadow="0">
      <root>
        <mxCell id="0" />
        <mxCell id="1" parent="0" />
        <mxCell id="Tj9olUjHDqmvs30ATsq0-2" value="Registro de libros" style="ellipse;whiteSpace=wrap;html=1;" parent="1" vertex="1">
          <mxGeometry x="40" y="90" width="120" height="80" as="geometry" />
        </mxCell>
        <mxCell id="8qNHTt2cXla2fwkcUvv6-5" value="Cliente" style="shape=umlActor;verticalLabelPosition=bottom;verticalAlign=top;html=1;outlineConnect=0;" vertex="1" parent="1">
          <mxGeometry x="330" y="160" width="30" height="60" as="geometry" />
        </mxCell>
        <mxCell id="8qNHTt2cXla2fwkcUvv6-6" value="Administrador" style="shape=umlActor;verticalLabelPosition=bottom;verticalAlign=top;html=1;outlineConnect=0;" vertex="1" parent="1">
          <mxGeometry x="-160" y="170" width="30" height="60" as="geometry" />
        </mxCell>
        <mxCell id="8qNHTt2cXla2fwkcUvv6-10" value="" style="endArrow=none;html=1;rounded=0;exitX=1;exitY=0.5;exitDx=0;exitDy=0;" edge="1" parent="1" source="8qNHTt2cXla2fwkcUvv6-14">
          <mxGeometry width="50" height="50" relative="1" as="geometry">
            <mxPoint x="290" y="240" as="sourcePoint" />
            <mxPoint x="340" y="190" as="targetPoint" />
          </mxGeometry>
        </mxCell>
        <mxCell id="8qNHTt2cXla2fwkcUvv6-11" value="" style="endArrow=none;html=1;rounded=0;exitX=1;exitY=0.5;exitDx=0;exitDy=0;" edge="1" parent="1" source="8qNHTt2cXla2fwkcUvv6-13">
          <mxGeometry width="50" height="50" relative="1" as="geometry">
            <mxPoint x="290" y="240" as="sourcePoint" />
            <mxPoint x="340" y="190" as="targetPoint" />
          </mxGeometry>
        </mxCell>
        <mxCell id="8qNHTt2cXla2fwkcUvv6-12" value="" style="endArrow=none;html=1;rounded=0;entryX=-0.005;entryY=0.622;entryDx=0;entryDy=0;entryPerimeter=0;" edge="1" parent="1" target="Tj9olUjHDqmvs30ATsq0-2">
          <mxGeometry width="50" height="50" relative="1" as="geometry">
            <mxPoint x="-110" y="200" as="sourcePoint" />
            <mxPoint x="-60" y="150" as="targetPoint" />
          </mxGeometry>
        </mxCell>
        <mxCell id="8qNHTt2cXla2fwkcUvv6-13" value="Registro de Usuarios" style="ellipse;whiteSpace=wrap;html=1;" vertex="1" parent="1">
          <mxGeometry x="40" y="180" width="120" height="80" as="geometry" />
        </mxCell>
        <mxCell id="8qNHTt2cXla2fwkcUvv6-14" value="Prestamo de libros" style="ellipse;whiteSpace=wrap;html=1;" vertex="1" parent="1">
          <mxGeometry x="40" y="270" width="120" height="80" as="geometry" />
        </mxCell>
        <mxCell id="8qNHTt2cXla2fwkcUvv6-15" value="Busqueda de libros" style="ellipse;whiteSpace=wrap;html=1;" vertex="1" parent="1">
          <mxGeometry x="40" y="360" width="120" height="80" as="geometry" />
        </mxCell>
        <mxCell id="8qNHTt2cXla2fwkcUvv6-16" value="Gestion de Usuarios y Libros" style="ellipse;whiteSpace=wrap;html=1;" vertex="1" parent="1">
          <mxGeometry x="40" y="450" width="120" height="80" as="geometry" />
        </mxCell>
        <mxCell id="8qNHTt2cXla2fwkcUvv6-17" value="Prestamo de libros" style="ellipse;whiteSpace=wrap;html=1;" vertex="1" parent="1">
          <mxGeometry x="40" y="630" width="120" height="80" as="geometry" />
        </mxCell>
        <mxCell id="8qNHTt2cXla2fwkcUvv6-18" value="Historial de transacciones" style="ellipse;whiteSpace=wrap;html=1;" vertex="1" parent="1">
          <mxGeometry x="40" y="540" width="120" height="80" as="geometry" />
        </mxCell>
        <mxCell id="8qNHTt2cXla2fwkcUvv6-19" value="" style="endArrow=none;html=1;rounded=0;exitX=1;exitY=0.5;exitDx=0;exitDy=0;" edge="1" parent="1" source="8qNHTt2cXla2fwkcUvv6-15">
          <mxGeometry width="50" height="50" relative="1" as="geometry">
            <mxPoint x="170" y="310" as="sourcePoint" />
            <mxPoint x="340" y="190" as="targetPoint" />
          </mxGeometry>
        </mxCell>
        <mxCell id="8qNHTt2cXla2fwkcUvv6-20" value="" style="endArrow=none;html=1;rounded=0;exitX=1;exitY=0.5;exitDx=0;exitDy=0;entryX=0;entryY=0.5;entryDx=0;entryDy=0;" edge="1" parent="1" target="8qNHTt2cXla2fwkcUvv6-16">
          <mxGeometry width="50" height="50" relative="1" as="geometry">
            <mxPoint x="-110" y="200" as="sourcePoint" />
            <mxPoint x="70" y="80" as="targetPoint" />
          </mxGeometry>
        </mxCell>
        <mxCell id="8qNHTt2cXla2fwkcUvv6-21" value="" style="endArrow=none;html=1;rounded=0;exitX=1;exitY=0.5;exitDx=0;exitDy=0;" edge="1" parent="1" source="8qNHTt2cXla2fwkcUvv6-18">
          <mxGeometry width="50" height="50" relative="1" as="geometry">
            <mxPoint x="190" y="340" as="sourcePoint" />
            <mxPoint x="340" y="190" as="targetPoint" />
          </mxGeometry>
        </mxCell>
        <mxCell id="8qNHTt2cXla2fwkcUvv6-22" value="" style="endArrow=none;html=1;rounded=0;exitX=1;exitY=0.5;exitDx=0;exitDy=0;entryX=0;entryY=0.5;entryDx=0;entryDy=0;" edge="1" parent="1" target="8qNHTt2cXla2fwkcUvv6-18">
          <mxGeometry width="50" height="50" relative="1" as="geometry">
            <mxPoint x="-110" y="200" as="sourcePoint" />
            <mxPoint x="40" y="490" as="targetPoint" />
          </mxGeometry>
        </mxCell>
      </root>
    </mxGraphModel>
  </diagram>
</mxfile>
